<svg xmlns="http://www.w3.org/2000/svg" version="1.1" xmlns:xlink="http://www.w3.org/1999/xlink" xmlns:svgjs="http://svgjs.dev/svgjs" width="1500" height="1500" viewBox="0 0 1500 1500"><rect width="1500" height="1500" fill="#1a365d"></rect><g transform="matrix(0.6666666666666666,0,0,0.6666666666666666,249.39393939393938,608.2688227608843)"><svg viewBox="0 0 396 112" data-background-color="#1a365d" preserveAspectRatio="xMidYMid meet" height="424" width="1500" xmlns="http://www.w3.org/2000/svg" xmlns:xlink="http://www.w3.org/1999/xlink"><g id="tight-bounds" transform="matrix(1,0,0,1,0.2400000000000091,0.15763626455532176)"><svg viewBox="0 0 395.52 111.68472747088934" height="111.68472747088934" width="395.52"><g><svg viewBox="0 0 590.8664639115036 166.84557037228043" height="111.68472747088934" width="395.52"><g transform="matrix(1,0,0,1,195.34646391150363,23.05897535535859)"><svg viewBox="0 0 395.52 120.72761966156325" height="120.72761966156325" width="395.52"><g id="textblocktransform"><svg viewBox="0 0 395.52 120.72761966156325" height="120.72761966156325" width="395.52" id="textblock"><g><svg viewBox="0 0 395.52 120.72761966156325" height="120.72761966156325" width="395.52"><g transform="matrix(1,0,0,1,0,0)"><svg width="395.52" viewBox="0.56 -34.52 151.48 46.24" height="120.72761966156325" data-palette-color="#cdedfe"><path d="M8.37 0.71L8.37 0.71Q6.15 0.71 4.09 0.39 2.03 0.07 0.56-0.85L0.56-0.85 0.56-7.81Q2.2-7.3 3.6-7.17 5-7.03 6.03-7.03L6.03-7.03Q7.13-7.03 7.75-7.48 8.37-7.93 8.69-8.64 9.01-9.35 9.08-10.24 9.16-11.13 9.16-12.01L9.16-12.01 9.16-34.52 20.09-34.52 20.09-10.47Q20.09-7.54 19.07-5.43 18.04-3.32 16.39-1.95 14.75-0.59 12.63 0.06 10.52 0.71 8.37 0.71ZM41.45 0.71L41.45 0.71Q38.57 0.71 36.33 0.17 34.08-0.37 32.39-1.32 30.71-2.27 29.53-3.58 28.34-4.88 27.61-6.42 26.88-7.96 26.55-9.67 26.22-11.38 26.22-13.13L26.22-13.13Q26.22-14.87 26.55-16.56 26.88-18.26 27.61-19.81 28.34-21.36 29.51-22.67 30.69-23.97 32.38-24.94 34.08-25.9 36.33-26.45 38.57-27 41.45-27L41.45-27Q44.33-27 46.58-26.45 48.83-25.9 50.52-24.94 52.22-23.97 53.39-22.67 54.56-21.36 55.3-19.81 56.03-18.26 56.36-16.56 56.69-14.87 56.69-13.13L56.69-13.13Q56.69-11.38 56.36-9.67 56.03-7.96 55.3-6.42 54.56-4.88 53.38-3.58 52.19-2.27 50.51-1.32 48.83-0.37 46.58 0.17 44.33 0.71 41.45 0.71ZM36.77-13.13L36.77-13.13Q36.77-11.82 37.01-10.56 37.25-9.3 37.8-8.31 38.35-7.32 39.24-6.73 40.13-6.13 41.45-6.13L41.45-6.13Q42.77-6.13 43.66-6.73 44.55-7.32 45.1-8.31 45.65-9.3 45.9-10.56 46.14-11.82 46.14-13.13L46.14-13.13Q46.14-14.45 45.9-15.71 45.65-16.97 45.1-17.96 44.55-18.95 43.66-19.56 42.77-20.17 41.45-20.17L41.45-20.17Q40.13-20.17 39.24-19.56 38.35-18.95 37.8-17.96 37.25-16.97 37.01-15.71 36.77-14.45 36.77-13.13ZM79.34-9.67L79.34-26.34 89.89-26.34 89.89-3.69Q89.89-0.93 89.33 1.27 88.76 3.47 87.76 5.19 86.76 6.91 85.38 8.14 84 9.38 82.34 10.17 80.68 10.96 78.8 11.34 76.92 11.72 74.95 11.72L74.95 11.72Q72.29 11.72 69.6 11.45 66.91 11.18 64.69 10.55L64.69 10.55 65.42 4.39Q68.09 5.03 69.88 5.2 71.67 5.37 72.53 5.37L72.53 5.37Q74.97 5.37 76.42 4.66 77.88 3.96 78.63 2.49L78.63 2.49Q79 1.76 79.23 1.05 79.46 0.34 79.61-0.42 79.76-1.17 79.8-1.99 79.85-2.81 79.85-3.81L79.85-3.81Q79.34-2.88 78.46-2.17 77.58-1.46 76.51-0.98 75.43-0.49 74.25-0.24 73.07 0 71.94 0L71.94 0Q69.99 0 68.23-0.6 66.47-1.2 65.12-2.48 63.76-3.76 62.97-5.76 62.18-7.76 62.18-10.55L62.18-10.55 62.18-26.34 71.55-26.34 71.55-10.84Q71.55-9.62 71.91-8.73 72.26-7.84 72.83-7.26 73.41-6.69 74.14-6.41 74.87-6.13 75.63-6.13L75.63-6.13Q76.34-6.13 77.01-6.36 77.68-6.59 78.19-7.04 78.71-7.5 79.02-8.15 79.34-8.81 79.34-9.67L79.34-9.67ZM113.1 0L102.17 0 102.17-26.56 94.35-26.56 94.35-34.52 121.09-34.52 121.09-26.56 113.1-26.56 113.1 0ZM142.4 0L131.46 0 131.46-11.87 120.79-34.52 133.34-34.52 137.54-22.09 141.4-34.52 152.04-34.52 142.4-12.18 142.4 0Z" opacity="1" transform="matrix(1,0,0,1,0,0)" fill="#cdedfe" class="wordmark-text-0" data-fill-palette-color="primary" id="text-0"></path></svg></g></svg></g></svg></g></svg></g><g><svg viewBox="0 0 166.84557037228043 166.84557037228043" height="166.84557037228043" width="166.84557037228043"><g><svg xmlns="http://www.w3.org/2000/svg" xmlns:xlink="http://www.w3.org/1999/xlink" version="1.1" x="0" y="0" viewBox="0 0 206 206" style="enable-background:new 0 0 206 206;" xml:space="preserve" height="166.84557037228043" width="166.84557037228043" class="icon-icon-0" data-fill-palette-color="accent" id="icon-0"><path d="M103 0C46.2 0 0 46.2 0 103S46.2 206 103 206 206 159.8 206 103 159.8 0 103 0M180.6 97.2C181.3 98.6 182 99.9 182.8 101.3 181.2 101.8 179.7 102.3 178.2 102.9zM184.7 100.7C183.7 98.8 182.6 96.8 181.6 94.9L185.6 85.9C185.7 86.1 185.8 86.2 185.9 86.4 188.2 90.7 190.4 95 192.6 99 189.9 99.5 187.3 100 184.7 100.7M194.7 98.7C192 93.6 189.3 88.5 186.7 83.5L190.7 74.5C192.2 77.4 193.8 80.4 195.5 83.6 198 88.4 200.6 93.2 203 97.7V98.1C200.1 98.2 197.4 98.4 194.7 98.7M191.6 72.3L195.1 64.3C198.9 73.2 201.4 82.8 202.4 92.8 198.7 85.7 195 78.7 191.6 72.3M156 18.3L159.3 20.4 158.7 20.7C158.1 20.8 157.6 20.7 157.1 20.4S156.3 19.6 156.1 19.1C156 18.8 156 18.5 156 18.3M100.7 36.3C95.7 26.8 90.5 17.1 86 8.4L91.4 3.7C91.7 3.7 91.9 3.6 92.2 3.6 94.3 7.6 96.6 11.9 99.1 16.7 100.7 19.7 102.2 22.6 103.8 25.6zM53.6 24.5C51 21.5 46.4 21.2 43.4 23.8 42.2 24.9 41.4 26.3 41.1 27.9 39.9 27.8 38.6 27.7 37.4 27.6 50.9 15.8 67.6 7.6 86 4.4L71.5 17.1C71.7 16.9 71.8 16.7 72 16.4 72.5 15.4 72.6 14.3 72.3 13.2 72.1 12.7 71.6 12.4 71.1 12.5 70.6 12.7 70.3 13.2 70.4 13.7 70.6 14.2 70.5 14.8 70.2 15.3S69.5 16.2 68.9 16.3C67.8 16.6 66.6 16 66.2 14.9 66 14.4 65.5 14.1 65 14.2 64.5 14.4 64.2 14.9 64.3 15.4 64.8 17.2 66.5 18.3 68.3 18.3 68.7 18.3 69.1 18.2 69.5 18.1S70.2 17.8 70.6 17.6L55.9 30.8C51.8 29.6 47.5 28.8 43.1 28.2 43.3 27.1 43.9 26.1 44.7 25.3 46.9 23.4 50.2 23.6 52.1 25.8 52.5 26.2 53.1 26.3 53.5 25.9S54 24.9 53.6 24.5M61.9 29.5C62.6 30.9 63.3 32.2 64.1 33.6 62.5 33 60.9 32.4 59.3 31.9zM67 34.7C65.8 32.5 64.6 30.3 63.5 28.1L69.5 22.9C69.8 23.5 70.2 24.2 70.5 24.8 73.5 30.5 76.5 36.1 79.3 41.3 75.3 38.8 71.2 36.6 67 34.7M82.7 43.8C78.8 36.4 74.7 28.8 70.9 21.6L76.9 16.4C77.9 18.3 78.9 20.2 80 22.2 86 33.5 92 44.9 96.1 52.6L95.4 55C91.6 50.8 87.3 47.1 82.7 43.8M96.9 49.7C90.8 38.4 84.3 26 78.5 15L84.5 9.8C86.1 12.8 87.8 16 89.6 19.5 93.1 26.2 96.7 33 99.9 39zM104.5 22.8C100.9 16 97.5 9.4 94.3 3.4 97.1 3.2 99.9 3 102.8 3 104.3 5.8 105.9 8.9 107.6 12.1zM108.4 9.3L105.1 3C106.8 3 108.5 3.1 110.1 3.2zM3.1 99.5H82.5C81.7 123.5 62.1 142.5 38.1 142.5 25.8 142.5 14.7 137.5 6.7 129.5 4.2 121 3 112.2 3 103 3 101.8 3 100.7 3.1 99.5M8.2 134.9C16.3 141.5 26.7 145.4 38 145.4 64.2 145.4 85.5 124.1 85.5 97.9 85.5 97.1 84.8 96.4 84 96.4H3.2C4.9 70.5 16.4 47.3 34.1 30.4 41.4 30.5 48.5 31.6 55.2 33.6 55.7 33.7 55.8 33.8 56.2 33.9 90.4 44.2 115.4 75.9 115.4 113.4 115.4 150.2 91.3 181.4 58.1 192.3 34.8 180.6 16.7 160 8.2 134.9M62.1 194.2C64.2 193.4 66.2 192.6 68.2 191.7 68.8 192 69.5 192.2 70.1 192.2 70.5 192.2 70.9 192.1 71.3 192 72.4 191.7 73.2 191 73.7 190 73.9 189.6 74.1 189.1 74.1 188.6 80 185.3 85.5 181.3 90.5 176.7 90.5 177 90.4 177.4 90.3 177.7 90 178.2 90.2 178.8 90.7 179 90.8 179.1 91 179.1 91.2 179.1 91.6 179.1 91.9 178.9 92.1 178.6 92.6 177.6 92.7 176.5 92.4 175.4 92.4 175.3 92.3 175.2 92.3 175.1 108.4 159.5 118.5 137.6 118.5 113.4 118.5 104.6 117.2 96.2 114.7 88.2 115.1 88.4 115.6 88.4 116.1 88.4 117.5 88.4 118.9 87.7 119.6 86.4 119.9 85.9 119.7 85.3 119.3 85 118.8 84.7 118.2 84.9 117.9 85.3 117.3 86.3 116 86.6 114.9 86 113.9 85.4 113.6 84.1 114.2 83 114.5 82.5 114.3 81.9 113.9 81.6 113.4 81.3 112.9 81.5 112.6 81.9 109 72.9 104 64.5 97.8 57.3L103 39C104 40.8 105.8 42.2 108 42.6 108.4 42.7 108.9 42.7 109.3 42.7 110.8 42.7 112.2 42.3 113.4 41.4 115 40.3 116 38.6 116.4 36.8 116.5 36.3 116.1 35.7 115.6 35.6S114.5 35.9 114.4 36.4C114.2 37.8 113.4 39 112.2 39.8 111.1 40.6 109.7 40.9 108.3 40.7 105.6 40.2 103.8 37.8 104 35.1L113.1 3.2C123.6 4.3 133.6 6.9 142.8 11 140.9 11.7 138.7 11.4 137.2 9.8 136.8 9.4 136.2 9.4 135.8 9.8S135.4 10.8 135.8 11.2C137.2 12.6 139.1 13.3 140.9 13.3 142.4 13.3 143.8 12.8 145.1 12 148.2 13.5 151.3 15.1 154.2 16.8 153.9 17.6 153.9 18.4 154.1 19.2 154.4 20.3 155 21.2 156 21.8 156.7 22.2 157.4 22.4 158.2 22.4 158.5 22.4 158.9 22.4 159.2 22.3 159.9 22.1 160.6 21.8 161.1 21.3 163.4 22.9 165.6 24.7 167.7 26.5 166.8 28.9 167.2 31.7 169 33.7 169.2 33.9 169.5 34 169.8 34 170 34 170.3 33.9 170.5 33.8 170.9 33.4 171 32.8 170.6 32.4 169.5 31.1 169.1 29.5 169.4 27.9 179.5 36.9 187.8 47.9 193.6 60.2L189.7 69C189.4 68.2 188.9 67.5 188.2 66.9 187.8 66.5 187.2 66.5 186.8 66.9S186.4 67.9 186.8 68.3C187.8 69.3 188.3 70.6 188.3 72V72.2L186.8 75.7C185.8 76.7 184.5 77.2 183.2 77.2 181.8 77.2 180.5 76.6 179.5 75.6 179.1 75.2 178.5 75.2 178.1 75.6S177.7 76.6 178.1 77C179.5 78.4 181.3 79.2 183.2 79.2H183.3C184.1 79.2 184.8 79.1 185.6 78.8L174.4 104.2C164.4 108.7 155.7 115.3 148.6 123.4 148.6 123.2 148.5 123.1 148.5 122.9 148.3 122.4 147.8 122.1 147.3 122.2 146.8 122.4 146.5 122.9 146.6 123.4 146.8 123.9 146.7 124.5 146.4 125S145.7 125.9 145.1 126C144 126.3 142.8 125.7 142.4 124.6 142.2 124.1 141.7 123.8 141.2 123.9 140.7 124.1 140.4 124.6 140.5 125.1 141 126.9 142.7 128 144.5 128H144.8C141.9 132 139.3 136.4 137.3 141 136.9 140.8 136.5 140.8 136.1 141.2S135.7 142.2 136.1 142.6C136.2 142.7 136.3 142.8 136.5 142.9 135.1 146.2 134 149.6 133.1 153.1 131.2 153 129.3 153.5 127.8 154.9 126.4 156.2 125.5 157.9 125.4 159.9 125.3 161.8 125.9 163.7 127.2 165.1 127.4 165.3 127.7 165.4 128 165.4 128.2 165.4 128.5 165.3 128.7 165.2 129.1 164.8 129.2 164.2 128.8 163.8 127.9 162.8 127.4 161.4 127.5 160S128.2 157.3 129.3 156.4C130.3 155.5 131.5 155.1 132.8 155.1 131.7 160.2 131.1 165.5 131.1 170.9V172C130.7 172 130.2 172 129.8 172.2 128.7 172.5 127.9 173.3 127.4 174.2 127.1 174.7 127.3 175.3 127.8 175.5 128.3 175.8 128.9 175.6 129.1 175.1 129.4 174.6 129.8 174.2 130.4 174 130.7 173.9 130.9 173.9 131.2 173.9 131.5 182 133.2 189.7 136 196.8 134 197.5 131.9 198.1 129.8 198.7 127.1 198.5 125 196.3 125 193.5 125 190.6 127.3 188.3 130.2 188.3 130.8 188.3 131.2 187.9 131.2 187.3S130.8 186.3 130.2 186.3C126.2 186.3 123 189.5 123 193.5 123 196 124.3 198.3 126.3 199.6 119.9 201.1 113.3 202 106.6 202.2 106.4 200.7 105.7 199.2 104.6 198.1 104.2 197.7 103.6 197.7 103.2 198.1S102.8 199.1 103.2 199.5C104 200.3 104.4 201.2 104.6 202.3H103.6C88.4 203 74.6 199.9 62.1 194.2M168.9 178.1C166.1 175.2 163.8 171.8 162.2 168 158.8 160.1 158.5 151.4 161.3 143.4L188.8 154.3C183.5 163.2 176.7 171.3 168.9 178.1M190.3 151.7L161 140C160.6 139.9 160.2 139.9 159.9 140 159.5 140.2 159.2 140.5 159.1 140.8 153.6 154.7 157.1 169.9 166.8 180 158.4 187 148.8 192.6 138.4 196.5 135.4 188.7 133.7 180.3 133.7 171.4 133.7 132.9 164.7 101.6 203 101.1V102.9C203 120.7 198.4 137.2 190.3 151.7M144.6 34.5C144.7 34 145.2 33.6 145.8 33.7 146.3 33.8 146.7 34.3 146.6 34.9 146.1 37.7 148 40.4 150.8 41 152.2 41.2 153.6 40.9 154.7 40.1S156.6 38.1 156.9 36.7C157 36.2 157.5 35.8 158.1 35.9 158.6 36 159 36.5 158.9 37.1 158.6 39 157.5 40.6 155.9 41.7 154.7 42.6 153.3 43 151.8 43 151.4 43 150.9 43 150.5 42.9 146.5 42.2 143.9 38.4 144.6 34.5M169 43.3C169.5 42.3 170.4 41.6 171.4 41.3 172.5 41 173.6 41.1 174.6 41.6S176.3 43 176.6 44C176.9 45.1 176.8 46.2 176.3 47.2 176.1 47.5 175.8 47.7 175.4 47.7 175.2 47.7 175.1 47.7 174.9 47.6 174.4 47.3 174.2 46.7 174.5 46.3 174.8 45.8 174.8 45.2 174.6 44.7S174 43.7 173.5 43.4 172.4 43.1 171.9 43.3 170.9 43.9 170.6 44.4 169.7 45.1 169.3 44.8C168.9 44.4 168.7 43.8 169 43.3M132.5 46.2C133 45.1 132.6 43.8 131.6 43.3 131.1 43 130.5 43 130 43.2S129 43.8 128.7 44.3 127.8 45 127.4 44.7C126.9 44.4 126.7 43.8 127 43.4 127.5 42.4 128.4 41.7 129.4 41.4 130.5 41.1 131.6 41.2 132.6 41.7 134.6 42.8 135.4 45.3 134.4 47.3 134.2 47.6 133.9 47.8 133.5 47.8 133.3 47.8 133.2 47.8 133 47.7 132.4 47.2 132.2 46.6 132.5 46.2M137.8 90.3C138.2 90.7 138.1 91.3 137.7 91.7S136.7 92 136.3 91.6C134.4 89.4 131.1 89.2 128.9 91.1 127.9 92 127.2 93.3 127.1 94.7S127.5 97.4 128.4 98.5C128.8 98.9 128.7 99.5 128.3 99.9 128.1 100.1 127.9 100.1 127.6 100.1S127 100 126.8 99.8C125.5 98.4 124.9 96.5 125 94.6S126 90.9 127.4 89.6C130.6 87 135.1 87.3 137.8 90.3M122.4 128.5C122.4 124.5 125.6 121.3 129.6 121.3 130.2 121.3 130.6 121.7 130.6 122.3S130.2 123.3 129.6 123.3C126.7 123.3 124.4 125.6 124.4 128.5S126.7 133.7 129.6 133.7C130.2 133.7 130.6 134.1 130.6 134.7S130.2 135.7 129.6 135.7C125.7 135.7 122.4 132.5 122.4 128.5M122.4 62.7C122.4 58.7 125.6 55.5 129.6 55.5 130.2 55.5 130.6 55.9 130.6 56.5S130.2 57.5 129.6 57.5C126.7 57.5 124.4 59.8 124.4 62.7S126.7 67.9 129.6 67.9C130.2 67.9 130.6 68.3 130.6 68.9S130.2 69.9 129.6 69.9C125.7 69.9 122.4 66.7 122.4 62.7M126.9 34C125.6 32.6 125 30.7 125.1 28.8S126.1 25.1 127.5 23.8C130.5 21.2 135.1 21.5 137.7 24.5 138.1 24.9 138 25.5 137.6 25.9S136.6 26.2 136.2 25.8C134.3 23.6 131 23.4 128.8 25.3 127.8 26.2 127.1 27.5 127 28.9S127.4 31.6 128.3 32.7C128.7 33.1 128.6 33.7 128.2 34.1 128 34.3 127.8 34.3 127.5 34.3 127.4 34.3 127.1 34.2 126.9 34M82.4 194.3C82.4 197.2 84.7 199.5 87.6 199.5 88.2 199.5 88.6 199.9 88.6 200.5S88.2 201.5 87.6 201.5C83.6 201.5 80.4 198.3 80.4 194.3S83.6 187.1 87.6 187.1C88.2 187.1 88.6 187.5 88.6 188.1S88.2 189.1 87.6 189.1C84.7 189.1 82.4 191.4 82.4 194.3M156.2 57.5C156.5 57 156.5 56.4 156.4 55.9 156.2 55.4 156.5 54.8 157.1 54.7 157.6 54.5 158.2 54.8 158.3 55.4 158.6 56.5 158.5 57.6 158 58.6S156.6 60.3 155.6 60.6C155.2 60.7 154.8 60.8 154.4 60.8 152.6 60.8 151 59.6 150.4 57.9 150.2 57.4 150.5 56.8 151.1 56.7 151.6 56.5 152.2 56.8 152.3 57.4 152.6 58.5 153.9 59.2 155 58.8 155.5 58.3 155.9 58 156.2 57.5M158.8 102.9C158.2 106.4 155.1 108.8 151.7 108.8 151.3 108.8 150.9 108.8 150.4 108.7 146.5 108 143.9 104.2 144.6 100.3 144.7 99.8 145.2 99.4 145.8 99.5 146.3 99.6 146.7 100.1 146.6 100.7 146.1 103.5 148 106.2 150.8 106.8 153.6 107.3 156.3 105.4 156.9 102.6 157 102.1 157.5 101.7 158.1 101.8 158.6 101.8 158.9 102.3 158.8 102.9M160 85.5C160.3 85 160.9 84.9 161.4 85.2S162 86.1 161.7 86.6C160.9 87.9 159.6 88.6 158.2 88.6 157.5 88.6 156.7 88.4 156 88 155.1 87.4 154.4 86.5 154.1 85.4S154 83.2 154.6 82.3C154.9 81.8 155.5 81.7 156 82S156.6 82.9 156.3 83.4 155.9 84.5 156 85 156.5 86 157 86.3C158.1 86.9 159.4 86.5 160 85.5M134.3 112.9C134.1 113.2 133.8 113.4 133.4 113.4 133.2 113.4 133.1 113.4 132.9 113.3 132.4 113 132.2 112.4 132.5 112 133 110.9 132.6 109.6 131.6 109.1 131.1 108.8 130.5 108.8 130 109S129 109.6 128.7 110.1 127.8 110.8 127.4 110.5C126.9 110.2 126.7 109.6 127 109.2 127.5 108.2 128.4 107.5 129.4 107.2 130.5 106.9 131.6 107 132.6 107.5 134.5 108.3 135.3 110.9 134.3 112.9M137.3 75.9C139.3 77.9 142.6 78 144.7 76 145.7 75 146.2 73.7 146.3 72.3 146.3 70.9 145.8 69.6 144.8 68.6 144.4 68.2 144.4 67.6 144.8 67.2S145.8 66.8 146.2 67.2C147.6 68.6 148.3 70.4 148.3 72.3S147.5 76 146.2 77.4C144.8 78.8 143 79.5 141.1 79.5S137.4 78.8 136 77.4C135.6 77 135.6 76.4 136 76S136.9 75.5 137.3 75.9M116.2 55.2C116.5 56.3 116.4 57.4 115.9 58.4S114.5 60.1 113.5 60.4C113.1 60.5 112.7 60.6 112.3 60.6 111.6 60.6 111 60.4 110.4 60.1 109.4 59.6 108.7 58.7 108.4 57.7 108.2 57.2 108.5 56.6 109.1 56.5 109.6 56.3 110.2 56.6 110.3 57.2 110.5 57.7 110.8 58.2 111.3 58.5S112.4 58.8 112.9 58.7C113.4 58.5 113.9 58.2 114.2 57.7S114.5 56.6 114.4 56.1C114.2 55.6 114.5 55 115.1 54.9 115.5 54.4 116 54.7 116.2 55.2M173.9 87.8C175.8 87.9 177.6 88.8 178.9 90.2 179.3 90.6 179.2 91.2 178.8 91.6S177.8 91.9 177.4 91.5C176.5 90.5 175.2 89.8 173.8 89.7S171.1 90.1 170 91C167.8 92.9 167.6 96.2 169.5 98.4 169.9 98.8 169.8 99.4 169.4 99.8 169.2 100 169 100 168.7 100S168.1 99.9 167.9 99.7C165.3 96.7 165.6 92.1 168.6 89.5 170.1 88.3 172 87.7 173.9 87.8M164.5 62.7C164.5 58.7 167.7 55.5 171.7 55.5 172.3 55.5 172.7 55.9 172.7 56.5S172.3 57.5 171.7 57.5C168.8 57.5 166.5 59.8 166.5 62.7S168.8 67.9 171.7 67.9C172.3 67.9 172.7 68.3 172.7 68.9S172.3 69.9 171.7 69.9C167.8 69.9 164.5 66.7 164.5 62.7M102.5 166.1C102.6 165.6 103.1 165.2 103.7 165.3 104.2 165.4 104.6 165.9 104.5 166.5 104 169.3 105.9 172 108.7 172.6 110.1 172.8 111.5 172.5 112.6 171.7S114.5 169.7 114.8 168.3C114.9 167.8 115.4 167.4 116 167.5 116.5 167.6 116.9 168.1 116.8 168.7 116.5 170.6 115.4 172.2 113.8 173.3 112.6 174.2 111.2 174.6 109.7 174.6 109.3 174.6 108.8 174.6 108.4 174.5 104.4 173.8 101.8 170 102.5 166.1M112.5 148C112.8 147.5 113.4 147.4 113.9 147.7S114.5 148.6 114.2 149.1C113.6 150.1 113.9 151.4 114.9 152.1 115.9 152.7 117.2 152.4 117.9 151.4 118.2 150.9 118.8 150.8 119.3 151.1S119.9 152 119.6 152.5C118.8 153.8 117.5 154.5 116.1 154.5 115.4 154.5 114.6 154.3 113.9 153.9 112 152.6 111.3 150 112.5 148M116.2 186.8C116.5 187.9 116.4 189 115.9 190S114.5 191.7 113.5 192C113.1 192.1 112.7 192.2 112.3 192.2 111.6 192.2 111 192 110.4 191.7 109.4 191.2 108.7 190.3 108.4 189.3 108.2 188.8 108.5 188.2 109.1 188.1 109.6 187.9 110.2 188.2 110.3 188.8 110.5 189.3 110.8 189.8 111.3 190.1S112.4 190.4 112.9 190.3C113.4 190.1 113.9 189.8 114.2 189.3S114.5 188.2 114.4 187.7C114.2 187.2 114.5 186.6 115.1 186.5 115.5 186 116 186.3 116.2 186.8M119.6 20.8C118.8 22.1 117.5 22.8 116.1 22.8 115.4 22.8 114.6 22.6 113.9 22.2 111.9 21 111.3 18.4 112.5 16.5 112.8 16 113.4 15.9 113.9 16.2S114.5 17.1 114.2 17.6C113.6 18.6 113.9 19.9 114.9 20.6 115.9 21.2 117.2 20.9 117.9 19.9 118.2 19.4 118.8 19.3 119.3 19.6 119.8 19.7 119.9 20.3 119.6 20.8M179.8 130.9C179.2 132.6 177.6 133.6 175.9 133.6 175.4 133.6 175 133.5 174.5 133.4 172.4 132.6 171.3 130.3 172 128.2S175.1 125 177.2 125.7C179.5 126.5 180.6 128.8 179.8 130.9M22.6 79.2C22.6 81.5 20.8 83.3 18.5 83.3S14.4 81.5 14.4 79.2 16.2 75.1 18.5 75.1C20.8 75.2 22.6 77 22.6 79.2M72.3 79.2C72.3 81.5 70.5 83.3 68.2 83.3S64.1 81.5 64.1 79.2 65.9 75.1 68.2 75.1C70.5 75.2 72.3 77 72.3 79.2" fill="#e9fc12" data-fill-palette-color="accent"></path></svg></g></svg></g></svg></g><defs></defs></svg><rect width="395.52" height="111.68472747088934" fill="none" stroke="none" visibility="hidden"></rect></g></svg></g></svg>